<?xml version="1.0" encoding="utf-8"?>
<!-- Generator: Adobe Illustrator 21.1.0, SVG Export Plug-In . SVG Version: 6.00 Build 0)  -->
<svg version="1.1" id="Layer_1" xmlns="http://www.w3.org/2000/svg" xmlns:xlink="http://www.w3.org/1999/xlink" x="0px" y="0px"
	 viewBox="0 0 54.7 51.7" style="enable-background:new 0 0 54.7 51.7;" xml:space="preserve">

<g>
	<g>
		<g>
			<path style="fill:#0033A0;" d="M15.2,22.4c-3.7,0-6.7,3.1-6.7,7v4.8c0,3.8,3,7,6.7,7h3c3.7,0,6.7-3.1,6.7-7v-4.8c0-3.8-3-7-6.7-7H15.2z
				 M11.4,34.2v-4.8c0-2.2,1.7-4,3.8-4h3c2.1,0,3.8,1.8,3.8,4v4.8c0,2.2-1.7,4-3.8,4h-3C13.1,38.2,11.4,36.4,11.4,34.2z"/>
		</g>
		<g>
			<path style="fill:#8C1D40;" d="M35.2,23.5c-4.4,0-8,3.8-8,8.4V38c0,4.7,3.6,8.4,8,8.4H39c4.4,0,8-3.8,8-8.4v-6c0-4.7-3.6-8.4-8-8.4
				L35.2,23.5L35.2,23.5z M30.1,38.1V32c0-3.1,2.3-5.5,5.1-5.5H39c2.8,0,5.1,2.5,5.1,5.5v6.1c0,3.1-2.3,5.5-5.1,5.5h-3.8
				C32.4,43.7,30.1,41.2,30.1,38.1z"/>
		</g>
		<g>
			<path style="fill:#0033A0;" d="M12.9,2.3c-3.5,0-6.4,3-6.4,6.6v4.5c0,3.6,2.9,6.6,6.4,6.6h2.8c3.5,0,6.4-3,6.4-6.6V8.9
				c0-3.6-2.9-6.6-6.4-6.6C15.7,2.3,12.9,2.3,12.9,2.3z M9.4,13.4V8.9c0-2,1.6-3.7,3.5-3.7h2.8c1.9,0,3.5,1.7,3.5,3.7v4.5
				c0,2-1.6,3.7-3.5,3.7h-2.8C11,17.1,9.4,15.4,9.4,13.4z"/>
		</g>
		<g>
			<path style="fill:#8C1D40;" d="M30.9,3.5c-3.5,0-6.4,3-6.4,6.6v4.5c0,3.7,2.9,6.6,6.4,6.6h2.9c3.5,0,6.4-3,6.4-6.6v-4.5
				c0-3.7-2.9-6.6-6.4-6.6H30.9z M27.4,14.7v-4.5c0-2.1,1.6-3.7,3.5-3.7h2.9c1.9,0,3.5,1.7,3.5,3.7v4.5c0,2.1-1.6,3.7-3.5,3.7h-2.9
				C29,18.4,27.4,16.7,27.4,14.7z"/>
		</g>
	</g>
</g>
</svg>
