<svg id="Layer_2" data-name="Layer 2" xmlns="http://www.w3.org/2000/svg" viewBox="0 0 163.02 177.64"><defs><style>.cls-1{fill:#005daa;}.cls-2{fill:#a30046;}.cls-3{fill:#717b7f;}</style></defs><title>AbioLogoQuad</title><path class="cls-1" d="M39.74,83.45C25,83.45,13,96,13,111.35v19.4c0,15.39,12,27.9,26.78,27.9H51.81c14.77,0,26.78-12.52,26.78-27.9v-19.4c0-15.39-12-27.9-26.78-27.9Zm-15.12,47.3v-19.4c0-9,6.78-16.25,15.12-16.25H51.81c8.34,0,15.13,7.29,15.13,16.25v19.4c0,9-6.78,16.25-15.13,16.25H39.74C31.4,147,24.61,139.71,24.61,130.75Z" transform="translate(-5.08 -2.77)"/><path class="cls-1" d="M120.27,87.9c-17.81,0-32.3,15.21-32.3,33.91V146.5c0,18.7,14.49,33.91,32.3,33.91h15.24c17.81,0,32.3-15.21,32.3-33.91V121.81c0-18.7-14.49-33.91-32.3-33.91ZM99.62,146.5V121.81c0-12.27,9.26-22.26,20.64-22.26h15.24c11.38,0,20.64,10,20.64,22.26V146.5c0,12.27-9.26,22.26-20.64,22.26H120.27C108.88,168.75,99.62,158.77,99.62,146.5Z" transform="translate(-5.08 -2.77)"/><path class="cls-1" d="M30.67,2.77C16.56,2.77,5.08,14.63,5.08,29.21V47.32c0,14.58,11.48,26.45,25.59,26.45H42.05c14.11,0,25.6-11.87,25.6-26.45V29.21c0-14.58-11.48-26.44-25.6-26.44ZM16.74,47.32V29.21c0-8.15,6.25-14.79,13.93-14.79H42.05C49.74,14.43,56,21.06,56,29.21V47.32c0,8.16-6.25,14.79-13.94,14.79H30.67C23,62.12,16.74,55.48,16.74,47.32Z" transform="translate(-5.08 -2.77)"/><path class="cls-1" d="M102.94,7.43C88.74,7.43,77.19,19.37,77.19,34V52.3c0,14.68,11.55,26.62,25.75,26.62h11.47c14.2,0,25.76-11.94,25.76-26.62V34c0-14.67-11.55-26.61-25.76-26.61ZM88.85,52.3V34c0-8.24,6.32-14.95,14.09-14.95h11.47c7.77,0,14.1,6.71,14.1,14.95V52.3c0,8.25-6.32,15-14.1,15H102.94C95.17,67.25,88.85,60.54,88.85,52.3Z" transform="translate(-5.08 -2.77)"/><path class="cls-1" d="M39.74,83.45C25,83.45,13,96,13,111.35v19.4c0,15.39,12,27.9,26.78,27.9H51.81c14.77,0,26.78-12.52,26.78-27.9v-19.4c0-15.39-12-27.9-26.78-27.9Zm-15.12,47.3v-19.4c0-9,6.78-16.25,15.12-16.25H51.81c8.34,0,15.13,7.29,15.13,16.25v19.4c0,9-6.78,16.25-15.13,16.25H39.74C31.4,147,24.61,139.71,24.61,130.75Z" transform="translate(-5.08 -2.77)"/><path class="cls-2" d="M120.27,87.9c-17.81,0-32.3,15.21-32.3,33.91V146.5c0,18.7,14.49,33.91,32.3,33.91h15.24c17.81,0,32.3-15.21,32.3-33.91V121.81c0-18.7-14.49-33.91-32.3-33.91ZM99.62,146.5V121.81c0-12.27,9.26-22.26,20.64-22.26h15.24c11.38,0,20.64,10,20.64,22.26V146.5c0,12.27-9.26,22.26-20.64,22.26H120.27C108.88,168.75,99.62,158.77,99.62,146.5Z" transform="translate(-5.08 -2.77)"/><path class="cls-1" d="M30.67,2.77C16.56,2.77,5.08,14.63,5.08,29.21V47.32c0,14.58,11.48,26.45,25.59,26.45H42.05c14.11,0,25.6-11.87,25.6-26.45V29.21c0-14.58-11.48-26.44-25.6-26.44ZM16.74,47.32V29.21c0-8.15,6.25-14.79,13.93-14.79H42.05C49.74,14.43,56,21.06,56,29.21V47.32c0,8.16-6.25,14.79-13.94,14.79H30.67C23,62.12,16.74,55.48,16.74,47.32Z" transform="translate(-5.08 -2.77)"/><path class="cls-2" d="M102.94,7.43C88.74,7.43,77.19,19.37,77.19,34V52.3c0,14.68,11.55,26.62,25.75,26.62h11.47c14.2,0,25.76-11.94,25.76-26.62V34c0-14.67-11.55-26.61-25.76-26.61ZM88.85,52.3V34c0-8.24,6.32-14.95,14.09-14.95h11.47c7.77,0,14.1,6.71,14.1,14.95V52.3c0,8.25-6.32,15-14.1,15H102.94C95.17,67.25,88.85,60.54,88.85,52.3Z" transform="translate(-5.08 -2.77)"/><path class="cls-3" d="M165,180.33a3,3,0,0,1-2.27-.95,3.46,3.46,0,0,1,0-4.66,3.19,3.19,0,0,1,4.53,0,3.49,3.49,0,0,1,0,4.66A3,3,0,0,1,165,180.33Zm0-6a2.47,2.47,0,0,0-1.88.8,2.89,2.89,0,0,0,0,3.9,2.6,2.6,0,0,0,3.76,0,2.9,2.9,0,0,0,0-3.91A2.47,2.47,0,0,0,164.94,174.29Zm-.62,3.3v1.28h-.7v-3.64h1.32a1.67,1.67,0,0,1,1,.26.94.94,0,0,1,.34.79,1.73,1.73,0,0,1-.14.79,1,1,0,0,1-.47.41l.66,1.38h-.73l-.6-1.28Zm0-1.79V177H165a.52.52,0,0,0,.61-.61q0-.61-.74-.61Z" transform="translate(-5.08 -2.77)"/></svg>