<?xml version="1.0" encoding="utf-8"?>
<!-- Generator: Adobe Illustrator 21.1.0, SVG Export Plug-In . SVG Version: 6.00 Build 0)  -->
<svg version="1.1" id="Layer_1" xmlns="http://www.w3.org/2000/svg" xmlns:xlink="http://www.w3.org/1999/xlink" x="0px" y="0px"
	 viewBox="0 0 300 99.3" style="enable-background:new 0 0 300 99.3;" xml:space="preserve">
<style type="text/css">
	.st0{fill:#0033A0;}
	.st1{fill:#8C1D40;}
</style>
<g>
	<g>
		<g>
			<path style="fill:#0033A0;" d="M77.2,63l-3.9-10.3H60.6l-4,10.3h-5.4l13.4-35h4.6l13.4,35H77.2z M71.5,48L67,34.6h-0.1L62.4,48H71.5z"/>
			<path style="fill:#0033A0;" d="M90.1,28h9.2c10,0,11,7.2,11,9.7c0,3.9-2,5.6-3.1,6.6c1.5,0.9,5.2,3.1,5.2,8.5c0,3.6-2,10.2-11.7,10.2H90.1
				V28z M95.3,42.6h4.2c4.8,0,5.7-2.9,5.7-4.9c0-5-4.8-5-6-5h-3.9C95.3,32.7,95.3,42.6,95.3,42.6z M95.3,58.3h5.6
				c5.2,0,6.4-3.7,6.4-5.5c0-1.3-0.5-2.5-1.2-3.5c-1.6-2.1-4-2.1-5.8-2.1h-5V58.3z"/>
			<path style="fill:#0033A0;" d="M121.1,63V28h5.2v35H121.1z"/>
			<path style="fill:#0033A0;" d="M153.3,63.7c-10.5,0-18.4-8.6-18.4-18.2c0-9.5,7.6-18.2,18.4-18.2c10.5,0,18.4,8.3,18.4,18.3
				C171.7,55.2,163.8,63.7,153.3,63.7z M153.3,32c-9.1,0-13.2,7.9-13.2,13.5c0,5.7,4.1,13.5,13.2,13.5c9.1,0,13.2-7.9,13.2-13.4
				C166.5,39.4,162.1,32,153.3,32z"/>
			<path style="fill:#0033A0;" d="M212.7,63V33.4h-0.1L200.7,63h-3.1l-11.9-29.6h-0.1V63h-5.2V28h8.1l10.6,26.9L209.7,28h8.1v35H212.7z"/>
			<path style="fill:#0033A0;" d="M230.2,63V28h19v4.7h-13.9V43h13.9v4.7h-13.9v10.7h13.9V63H230.2z"/>
			<path style="fill:#0033A0;" d="M260.7,28h11.4c7.3,0,11.7,2.8,14.4,6.4c2.5,3.5,3.6,7.8,3.6,11.2c0,4.7-1.8,9.8-4.4,12.4
				c-4.1,4-8.8,5.1-13.8,5.1h-11.3L260.7,28L260.7,28z M265.9,58.3h6.2c6.2,0,13-3.1,13-12.7c0-5.3-3.3-12.9-12.9-12.9H266v25.6
				H265.9z"/>
		</g>
		<g>
			<path style="fill:#0033A0;" d="M15.2,22.4c-3.7,0-6.7,3.1-6.7,7v4.8c0,3.8,3,7,6.7,7h3c3.7,0,6.7-3.1,6.7-7v-4.8c0-3.8-3-7-6.7-7H15.2z
				 M11.4,34.2v-4.8c0-2.2,1.7-4,3.8-4h3c2.1,0,3.8,1.8,3.8,4v4.8c0,2.2-1.7,4-3.8,4h-3C13.1,38.2,11.4,36.4,11.4,34.2z"/>
		</g>
		<g>
			<path style="fill:#8C1D40;" d="M35.2,23.5c-4.4,0-8,3.8-8,8.4V38c0,4.7,3.6,8.4,8,8.4H39c4.4,0,8-3.8,8-8.4v-6c0-4.7-3.6-8.4-8-8.4
				L35.2,23.5L35.2,23.5z M30.1,38.1V32c0-3.1,2.3-5.5,5.1-5.5H39c2.8,0,5.1,2.5,5.1,5.5v6.1c0,3.1-2.3,5.5-5.1,5.5h-3.8
				C32.4,43.7,30.1,41.2,30.1,38.1z"/>
		</g>
		<g>
			<path style="fill:#0033A0;" d="M12.9,2.3c-3.5,0-6.4,3-6.4,6.6v4.5c0,3.6,2.9,6.6,6.4,6.6h2.8c3.5,0,6.4-3,6.4-6.6V8.9
				c0-3.6-2.9-6.6-6.4-6.6C15.7,2.3,12.9,2.3,12.9,2.3z M9.4,13.4V8.9c0-2,1.6-3.7,3.5-3.7h2.8c1.9,0,3.5,1.7,3.5,3.7v4.5
				c0,2-1.6,3.7-3.5,3.7h-2.8C11,17.1,9.4,15.4,9.4,13.4z"/>
		</g>
		<g>
			<path style="fill:#8C1D40;" d="M30.9,3.5c-3.5,0-6.4,3-6.4,6.6v4.5c0,3.7,2.9,6.6,6.4,6.6h2.9c3.5,0,6.4-3,6.4-6.6v-4.5
				c0-3.7-2.9-6.6-6.4-6.6H30.9z M27.4,14.7v-4.5c0-2.1,1.6-3.7,3.5-3.7h2.9c1.9,0,3.5,1.7,3.5,3.7v4.5c0,2.1-1.6,3.7-3.5,3.7h-2.9
				C29,18.4,27.4,16.7,27.4,14.7z"/>
		</g>
	</g>
	<g>
		<path style="fill:#0033A0;" d="M290.9,25.2c1.4,0,2.6,1.2,2.6,2.6c0,1.5-1.1,2.6-2.6,2.6c-1.4,0-2.6-1.2-2.6-2.6S289.5,25.2,290.9,25.2
			L290.9,25.2z M290.9,25.6c-1.2,0-2.1,1-2.1,2.2s0.9,2.2,2.1,2.2s2.1-1,2.1-2.2S292.1,25.6,290.9,25.6L290.9,25.6z M290.4,29.4
			h-0.5v-2.9c0.2,0,0.5-0.1,0.8-0.1c0.4,0,0.7,0.1,0.9,0.2s0.3,0.3,0.3,0.6c0,0.4-0.3,0.6-0.6,0.7l0,0c0.3,0,0.4,0.3,0.5,0.7
			c0.1,0.5,0.1,0.6,0.2,0.7h-0.5c-0.1-0.1-0.1-0.4-0.2-0.7c-0.1-0.4-0.3-0.5-0.6-0.5h-0.3L290.4,29.4L290.4,29.4z M290.4,27.7h0.3
			c0.4,0,0.7-0.1,0.7-0.5c0-0.3-0.2-0.5-0.7-0.5c-0.2,0-0.3,0-0.3,0V27.7z"/>
	</g>
</g>
<g>
	<path style="fill:#8C1D40;" d="M93.8,86.7L91,75.8h1.5l1.3,5.5c0.3,1.4,0.6,2.7,0.8,3.8h0c0.2-1.1,0.5-2.4,0.9-3.8l1.5-5.5h1.5l1.3,5.5
		c0.3,1.3,0.6,2.6,0.8,3.7h0c0.2-1.2,0.5-2.4,0.9-3.8l1.4-5.5h1.4l-3.1,10.9h-1.5L98.4,81c-0.3-1.4-0.6-2.5-0.7-3.6h0
		c-0.2,1.1-0.4,2.2-0.8,3.6l-1.6,5.7H93.8z"/>
	<path style="fill:#8C1D40;" d="M109.9,76.6c0,0.5-0.3,0.9-0.9,0.9c-0.5,0-0.9-0.4-0.9-0.9c0-0.5,0.4-0.9,0.9-0.9
		C109.6,75.7,109.9,76.1,109.9,76.6z M108.3,86.7v-7.8h1.4v7.8H108.3z"/>
	<path style="fill:#8C1D40;" d="M115,81.3c0-0.9,0-1.7-0.1-2.4h1.2l0,1.5h0.1c0.4-1.1,1.2-1.7,2.2-1.7c0.2,0,0.3,0,0.4,0V80
		c-0.1,0-0.3,0-0.5,0c-1,0-1.7,0.8-1.9,1.8c0,0.2-0.1,0.4-0.1,0.7v4.2H115V81.3z"/>
	<path style="fill:#8C1D40;" d="M123.9,83c0,1.9,1.3,2.7,2.7,2.7c1,0,1.6-0.2,2.2-0.4l0.2,1c-0.5,0.2-1.4,0.5-2.6,0.5c-2.4,0-3.9-1.6-3.9-4
		c0-2.4,1.4-4.2,3.7-4.2c2.6,0,3.2,2.3,3.2,3.7c0,0.3,0,0.5,0,0.7H123.9z M128,82c0-0.9-0.4-2.3-2-2.3c-1.4,0-2.1,1.3-2.2,2.3H128z"
		/>
	<path style="fill:#8C1D40;" d="M134.1,75.2h1.4v11.5h-1.4V75.2z"/>
	<path style="fill:#8C1D40;" d="M141.6,83c0,1.9,1.3,2.7,2.7,2.7c1,0,1.6-0.2,2.2-0.4l0.2,1c-0.5,0.2-1.4,0.5-2.6,0.5c-2.4,0-3.9-1.6-3.9-4
		c0-2.4,1.4-4.2,3.7-4.2c2.6,0,3.2,2.3,3.2,3.7c0,0.3,0,0.5,0,0.7H141.6z M145.8,82c0-0.9-0.4-2.3-2-2.3c-1.4,0-2.1,1.3-2.2,2.3
		H145.8z"/>
	<path style="fill:#8C1D40;" d="M151.6,85.2c0.4,0.3,1.2,0.6,1.9,0.6c1,0,1.5-0.5,1.5-1.2c0-0.7-0.4-1.1-1.5-1.4c-1.4-0.5-2.1-1.3-2.1-2.2
		c0-1.3,1-2.3,2.7-2.3c0.8,0,1.5,0.2,1.9,0.5l-0.4,1c-0.3-0.2-0.9-0.5-1.6-0.5c-0.8,0-1.3,0.5-1.3,1.1c0,0.6,0.5,0.9,1.5,1.3
		c1.4,0.5,2.1,1.2,2.1,2.4c0,1.4-1.1,2.3-2.9,2.3c-0.9,0-1.7-0.2-2.2-0.5L151.6,85.2z"/>
	<path style="fill:#8C1D40;" d="M161,85.2c0.4,0.3,1.2,0.6,1.9,0.6c1,0,1.5-0.5,1.5-1.2c0-0.7-0.4-1.1-1.5-1.4c-1.4-0.5-2.1-1.3-2.1-2.2
		c0-1.3,1-2.3,2.7-2.3c0.8,0,1.5,0.2,1.9,0.5l-0.4,1c-0.3-0.2-0.9-0.5-1.6-0.5c-0.8,0-1.3,0.5-1.3,1.1c0,0.6,0.5,0.9,1.5,1.3
		c1.4,0.5,2.1,1.2,2.1,2.4c0,1.4-1.1,2.3-2.9,2.3c-0.9,0-1.7-0.2-2.2-0.5L161,85.2z"/>
	<path style="fill:#8C1D40;" d="M176.9,75.9c0.7-0.1,1.7-0.2,2.7-0.2c1.5,0,2.5,0.3,3.2,0.9c0.5,0.5,0.9,1.2,0.9,2.1c0,1.4-0.9,2.4-2.1,2.8v0
		c0.8,0.3,1.3,1.1,1.6,2.2c0.4,1.5,0.6,2.6,0.8,3h-1.5c-0.2-0.3-0.4-1.2-0.7-2.6c-0.3-1.5-0.9-2.1-2.2-2.1h-1.3v4.7h-1.4V75.9z
		 M178.3,80.9h1.4c1.5,0,2.5-0.8,2.5-2.1c0-1.4-1-2-2.5-2c-0.7,0-1.2,0.1-1.4,0.1V80.9z"/>
	<path style="fill:#8C1D40;" d="M189.3,83c0,1.9,1.3,2.7,2.7,2.7c1,0,1.6-0.2,2.2-0.4l0.2,1c-0.5,0.2-1.4,0.5-2.6,0.5c-2.4,0-3.9-1.6-3.9-4
		c0-2.4,1.4-4.2,3.7-4.2c2.6,0,3.2,2.3,3.2,3.7c0,0.3,0,0.5,0,0.7H189.3z M193.5,82c0-0.9-0.4-2.3-2-2.3c-1.4,0-2.1,1.3-2.2,2.3
		H193.5z"/>
	<path style="fill:#8C1D40;" d="M199.5,81c0-0.8,0-1.5-0.1-2.1h1.2l0.1,1.3h0c0.4-0.7,1.2-1.4,2.5-1.4c1.1,0,1.9,0.6,2.2,1.6h0
		c0.2-0.4,0.5-0.8,0.9-1c0.5-0.4,1-0.6,1.7-0.6c1,0,2.6,0.7,2.6,3.4v4.6h-1.4v-4.4c0-1.5-0.6-2.4-1.7-2.4c-0.8,0-1.4,0.6-1.7,1.3
		c-0.1,0.2-0.1,0.5-0.1,0.7v4.8h-1.4V82c0-1.2-0.5-2.2-1.6-2.2c-0.9,0-1.5,0.7-1.8,1.4c-0.1,0.2-0.1,0.5-0.1,0.7v4.7h-1.4V81z"/>
	<path style="fill:#8C1D40;" d="M223,82.7c0,2.9-2,4.2-3.9,4.2c-2.1,0-3.8-1.6-3.8-4c0-2.6,1.7-4.2,3.9-4.2C221.5,78.7,223,80.3,223,82.7z
		 M216.8,82.8c0,1.7,1,3,2.4,3c1.4,0,2.4-1.3,2.4-3c0-1.3-0.7-3-2.3-3S216.8,81.3,216.8,82.8z"/>
	<path style="fill:#8C1D40;" d="M229.5,76.6v2.3h2v1.1h-2v4.2c0,1,0.3,1.5,1.1,1.5c0.4,0,0.6,0,0.8-0.1l0.1,1.1c-0.3,0.1-0.7,0.2-1.3,0.2
		c-0.7,0-1.2-0.2-1.5-0.6c-0.4-0.4-0.6-1.1-0.6-2v-4.3h-1.2v-1.1h1.2V77L229.5,76.6z"/>
	<path style="fill:#8C1D40;" d="M236.7,83c0,1.9,1.3,2.7,2.7,2.7c1,0,1.6-0.2,2.2-0.4l0.2,1c-0.5,0.2-1.4,0.5-2.6,0.5c-2.4,0-3.9-1.6-3.9-4
		c0-2.4,1.4-4.2,3.7-4.2c2.6,0,3.2,2.3,3.2,3.7c0,0.3,0,0.5,0,0.7H236.7z M240.9,82c0-0.9-0.4-2.3-2-2.3c-1.4,0-2.1,1.3-2.2,2.3
		H240.9z"/>
	<path style="fill:#8C1D40;" d="M253.3,75.8h1.4v9.7h4.7v1.2h-6.1V75.8z"/>
	<path style="fill:#8C1D40;" d="M265.4,76.6c0,0.5-0.3,0.9-0.9,0.9c-0.5,0-0.9-0.4-0.9-0.9c0-0.5,0.4-0.9,0.9-0.9
		C265.1,75.7,265.4,76.1,265.4,76.6z M263.8,86.7v-7.8h1.4v7.8H263.8z"/>
	<path style="fill:#8C1D40;" d="M270.5,81c0-0.8,0-1.5-0.1-2.1h1.3l0.1,1.3h0c0.4-0.7,1.3-1.5,2.6-1.5c1.1,0,2.8,0.6,2.8,3.3v4.7h-1.4v-4.5
		c0-1.3-0.5-2.3-1.8-2.3c-0.9,0-1.7,0.7-1.9,1.5c-0.1,0.2-0.1,0.4-0.1,0.7v4.7h-1.4V81z"/>
	<path style="fill:#8C1D40;" d="M283.8,82.4L283.8,82.4c0.2-0.3,0.5-0.6,0.7-0.9l2.3-2.7h1.7l-3,3.2l3.5,4.6h-1.7l-2.7-3.8l-0.7,0.8v2.9h-1.4
		V75.2h1.4V82.4z"/>
</g>
</svg>
