<svg id="Layer_1" data-name="Layer 1" xmlns="http://www.w3.org/2000/svg" viewBox="0 0 286.96 61.37"><defs><style>.cls-1{fill:#0033a0;}.cls-2{fill:#8c1d40;}</style></defs><title>AbioLogoColor</title><path class="cls-1" d="M71.49,61.35,67.58,51H54.89L51,61.35H45.54l13.4-35h4.63l13.4,35Zm-5.68-15-4.48-13.4h-.1L56.7,46.34Z" transform="translate(-0.85 -0.65)"/><path class="cls-1" d="M84.46,26.31h9.16c10,0,11,7.25,11,9.71a7.94,7.94,0,0,1-3.15,6.63,9.36,9.36,0,0,1,5.25,8.52c0,3.6-2,10.18-11.73,10.18H84.46Zm5.15,14.58h4.2c4.82,0,5.68-2.89,5.68-4.92,0-5-4.82-5-6-5H89.61Zm0,15.77h5.58c5.2,0,6.39-3.69,6.39-5.49a5.86,5.86,0,0,0-1.24-3.46c-1.57-2.08-4-2.13-5.77-2.13h-5Z" transform="translate(-0.85 -0.65)"/><path class="cls-1" d="M115.46,61.35v-35h5.15v35Z" transform="translate(-0.85 -0.65)"/><path class="cls-1" d="M147.65,62A18.19,18.19,0,1,1,166,43.93,18.29,18.29,0,0,1,147.65,62Zm0-31.68c-9.11,0-13.21,7.91-13.21,13.5s4.15,13.5,13.21,13.5S160.86,49.47,160.86,44C160.86,37.77,156.43,30.34,147.65,30.34Z" transform="translate(-0.85 -0.65)"/><path class="cls-1" d="M207,61.35V31.76h-.14L195,61.35h-3.1L180,31.76h-.09v29.6h-5.15v-35h8.11l10.59,26.85,10.64-26.85h8.11v35Z" transform="translate(-0.85 -0.65)"/><path class="cls-1" d="M224.53,61.35v-35h19V31H229.68V41.32h13.88V46H229.68V56.66h13.88v4.69Z" transform="translate(-0.85 -0.65)"/><path class="cls-1" d="M255.06,26.31H266.5c7.35,0,11.73,2.79,14.4,6.44a19.75,19.75,0,0,1,3.62,11.18c0,4.73-1.81,9.8-4.44,12.36-4.05,4-8.82,5.07-13.78,5.07H255.06Zm5.15,30.35h6.15c6.2,0,13-3.08,13-12.74,0-5.3-3.29-12.93-12.93-12.93h-6.25Z" transform="translate(-0.85 -0.65)"/><path class="cls-1" d="M9.49,20.75a6.82,6.82,0,0,0-6.67,7v4.83a6.82,6.82,0,0,0,6.67,7h3a6.82,6.82,0,0,0,6.67-7V27.7a6.82,6.82,0,0,0-6.67-7ZM5.72,32.53V27.7a3.92,3.92,0,0,1,3.77-4h3a3.92,3.92,0,0,1,3.77,4v4.83a3.92,3.92,0,0,1-3.77,4h-3A3.92,3.92,0,0,1,5.72,32.53Z" transform="translate(-0.85 -0.65)"/><path class="cls-2" d="M29.55,21.86a8.26,8.26,0,0,0-8,8.45v6.15a8.26,8.26,0,0,0,8,8.45h3.8a8.26,8.26,0,0,0,8-8.45V30.3a8.26,8.26,0,0,0-8-8.45ZM24.4,36.45V30.3a5.36,5.36,0,0,1,5.14-5.54h3.8a5.36,5.36,0,0,1,5.14,5.54v6.15A5.36,5.36,0,0,1,33.34,42h-3.8A5.36,5.36,0,0,1,24.4,36.45Z" transform="translate(-0.85 -0.65)"/><path class="cls-1" d="M7.23.65A6.49,6.49,0,0,0,.85,7.24v4.51a6.49,6.49,0,0,0,6.37,6.59h2.84a6.49,6.49,0,0,0,6.38-6.59V7.24A6.49,6.49,0,0,0,10.06.65ZM3.76,11.75V7.24A3.59,3.59,0,0,1,7.23,3.55h2.84a3.59,3.59,0,0,1,3.47,3.68v4.51a3.59,3.59,0,0,1-3.47,3.68H7.23A3.59,3.59,0,0,1,3.76,11.75Z" transform="translate(-0.85 -0.65)"/><path class="cls-2" d="M25.23,1.81a6.53,6.53,0,0,0-6.42,6.63V13a6.53,6.53,0,0,0,6.42,6.63h2.86A6.53,6.53,0,0,0,34.5,13V8.44a6.53,6.53,0,0,0-6.42-6.63ZM21.72,13V8.44a3.63,3.63,0,0,1,3.51-3.72h2.86A3.63,3.63,0,0,1,31.6,8.44V13a3.63,3.63,0,0,1-3.51,3.73H25.23A3.63,3.63,0,0,1,21.72,13Z" transform="translate(-0.85 -0.65)"/><path class="cls-1" d="M285.25,23.55a2.62,2.62,0,1,1-2.61,2.62,2.58,2.58,0,0,1,2.61-2.62Zm0,.41a2.22,2.22,0,0,0,0,4.43,2.22,2.22,0,0,0,0-4.43Zm-.49,3.73h-.46V24.77a5.17,5.17,0,0,1,.83-.07,1.53,1.53,0,0,1,.91.22.7.7,0,0,1,.27.61.73.73,0,0,1-.57.71v0c.26,0,.43.28.49.71a2.36,2.36,0,0,0,.18.72h-.49a2.12,2.12,0,0,1-.2-.74.55.55,0,0,0-.63-.51h-.33Zm0-1.62h.34c.38,0,.71-.14.71-.5s-.19-.51-.71-.51a2.27,2.27,0,0,0-.34,0Z" transform="translate(-0.85 -0.65)"/></svg>