<?xml version="1.0" encoding="utf-8"?>
<!-- Generator: Adobe Illustrator 21.1.0, SVG Export Plug-In . SVG Version: 6.00 Build 0)  -->
<svg version="1.1" id="Layer_1" xmlns="http://www.w3.org/2000/svg" xmlns:xlink="http://www.w3.org/1999/xlink" x="0px" y="0px"
	 viewBox="0 0 300 71.3" style="enable-background:new 0 0 300 71.3;" xml:space="preserve">

<g>
	<g>
		<g>
			<path style="fill:#0033A0;" d="M77.2,63l-3.9-10.3H60.6l-4,10.3h-5.4l13.4-35h4.6l13.4,35H77.2z M71.5,48L67,34.6h-0.1L62.4,48H71.5z"/>
			<path style="fill:#0033A0;" d="M90.1,28h9.2c10,0,11,7.2,11,9.7c0,3.9-2,5.6-3.1,6.6c1.5,0.9,5.2,3.1,5.2,8.5c0,3.6-2,10.2-11.7,10.2H90.1
				V28z M95.3,42.6h4.2c4.8,0,5.7-2.9,5.7-4.9c0-5-4.8-5-6-5h-3.9C95.3,32.7,95.3,42.6,95.3,42.6z M95.3,58.3h5.6
				c5.2,0,6.4-3.7,6.4-5.5c0-1.3-0.5-2.5-1.2-3.5c-1.6-2.1-4-2.1-5.8-2.1h-5V58.3z"/>
			<path style="fill:#0033A0;" d="M121.1,63V28h5.2v35H121.1z"/>
			<path style="fill:#0033A0;" d="M153.3,63.7c-10.5,0-18.4-8.6-18.4-18.2c0-9.5,7.6-18.2,18.4-18.2c10.5,0,18.4,8.3,18.4,18.3
				C171.7,55.2,163.8,63.7,153.3,63.7z M153.3,32c-9.1,0-13.2,7.9-13.2,13.5c0,5.7,4.1,13.5,13.2,13.5c9.1,0,13.2-7.9,13.2-13.4
				C166.5,39.4,162.1,32,153.3,32z"/>
			<path style="fill:#0033A0;" d="M212.7,63V33.4h-0.1L200.7,63h-3.1l-11.9-29.6h-0.1V63h-5.2V28h8.1l10.6,26.9L209.7,28h8.1v35H212.7z"/>
			<path style="fill:#0033A0;" d="M230.2,63V28h19v4.7h-13.9V43h13.9v4.7h-13.9v10.7h13.9V63H230.2z"/>
			<path style="fill:#0033A0;" d="M260.7,28h11.4c7.3,0,11.7,2.8,14.4,6.4c2.5,3.5,3.6,7.8,3.6,11.2c0,4.7-1.8,9.8-4.4,12.4
				c-4.1,4-8.8,5.1-13.8,5.1h-11.3L260.7,28L260.7,28z M265.9,58.3h6.2c6.2,0,13-3.1,13-12.7c0-5.3-3.3-12.9-12.9-12.9H266v25.6
				H265.9z"/>
		</g>
		<g>
			<path style="fill:#0033A0;" d="M15.2,22.4c-3.7,0-6.7,3.1-6.7,7v4.8c0,3.8,3,7,6.7,7h3c3.7,0,6.7-3.1,6.7-7v-4.8c0-3.8-3-7-6.7-7H15.2z
				 M11.4,34.2v-4.8c0-2.2,1.7-4,3.8-4h3c2.1,0,3.8,1.8,3.8,4v4.8c0,2.2-1.7,4-3.8,4h-3C13.1,38.2,11.4,36.4,11.4,34.2z"/>
		</g>
		<g>
			<path style="fill:#8C1D40;" d="M35.2,23.5c-4.4,0-8,3.8-8,8.4V38c0,4.7,3.6,8.4,8,8.4H39c4.4,0,8-3.8,8-8.4v-6c0-4.7-3.6-8.4-8-8.4
				L35.2,23.5L35.2,23.5z M30.1,38.1V32c0-3.1,2.3-5.5,5.1-5.5H39c2.8,0,5.1,2.5,5.1,5.5v6.1c0,3.1-2.3,5.5-5.1,5.5h-3.8
				C32.4,43.7,30.1,41.2,30.1,38.1z"/>
		</g>
		<g>
			<path style="fill:#0033A0;" d="M12.9,2.3c-3.5,0-6.4,3-6.4,6.6v4.5c0,3.6,2.9,6.6,6.4,6.6h2.8c3.5,0,6.4-3,6.4-6.6V8.9
				c0-3.6-2.9-6.6-6.4-6.6C15.7,2.3,12.9,2.3,12.9,2.3z M9.4,13.4V8.9c0-2,1.6-3.7,3.5-3.7h2.8c1.9,0,3.5,1.7,3.5,3.7v4.5
				c0,2-1.6,3.7-3.5,3.7h-2.8C11,17.1,9.4,15.4,9.4,13.4z"/>
		</g>
		<g>
			<path style="fill:#8C1D40;" d="M30.9,3.5c-3.5,0-6.4,3-6.4,6.6v4.5c0,3.7,2.9,6.6,6.4,6.6h2.9c3.5,0,6.4-3,6.4-6.6v-4.5
				c0-3.7-2.9-6.6-6.4-6.6H30.9z M27.4,14.7v-4.5c0-2.1,1.6-3.7,3.5-3.7h2.9c1.9,0,3.5,1.7,3.5,3.7v4.5c0,2.1-1.6,3.7-3.5,3.7h-2.9
				C29,18.4,27.4,16.7,27.4,14.7z"/>
		</g>
	</g>
	<g>
		<path style="fill:#0033A0;" d="M290.9,25.2c1.4,0,2.6,1.2,2.6,2.6c0,1.5-1.1,2.6-2.6,2.6c-1.4,0-2.6-1.2-2.6-2.6S289.5,25.2,290.9,25.2
			L290.9,25.2z M290.9,25.6c-1.2,0-2.1,1-2.1,2.2s0.9,2.2,2.1,2.2s2.1-1,2.1-2.2S292.1,25.6,290.9,25.6L290.9,25.6z M290.4,29.4
			h-0.5v-2.9c0.2,0,0.5-0.1,0.8-0.1c0.4,0,0.7,0.1,0.9,0.2s0.3,0.3,0.3,0.6c0,0.4-0.3,0.6-0.6,0.7l0,0c0.3,0,0.4,0.3,0.5,0.7
			c0.1,0.5,0.1,0.6,0.2,0.7h-0.5c-0.1-0.1-0.1-0.4-0.2-0.7c-0.1-0.4-0.3-0.5-0.6-0.5h-0.3L290.4,29.4L290.4,29.4z M290.4,27.7h0.3
			c0.4,0,0.7-0.1,0.7-0.5c0-0.3-0.2-0.5-0.7-0.5c-0.2,0-0.3,0-0.3,0V27.7z"/>
	</g>
</g>
</svg>
