<?xml version="1.0" encoding="utf-8"?>
<!-- Generator: Adobe Illustrator 21.1.0, SVG Export Plug-In . SVG Version: 6.00 Build 0)  -->
<svg version="1.1" id="Layer_1" xmlns="http://www.w3.org/2000/svg" xmlns:xlink="http://www.w3.org/1999/xlink" x="0px" y="0px"
	 viewBox="0 0 39 30" style="enable-background:new 0 0 39 30;" xml:space="preserve">
<style type="text/css">
	.st0{fill:none;stroke:#005fa9;stroke-miterlimit:10;}
	.st1{fill:#2D2D2D;stroke:#2D2D2D;stroke-miterlimit:10;}
	.st2{fill:#2D2D2D;}
	.st3{fill:#FFFFFF;}
</style>
<path style="fill:none;stroke:#0e355a;stroke-miterlimit:10;" d="M36.1,4.5h-7.6V2.7c0-0.6-0.5-1.2-1.2-1.2H2.2C1.5,1.5,1,2,1,2.7v18.1C1,21.5,1.5,22,2.2,22h2.3v5.1
	c0,0.8,0.6,1.4,1.4,1.4h30.2c0.8,0,1.4-0.6,1.4-1.4V5.9C37.5,5.1,36.9,4.5,36.1,4.5z"/>
<path style="fill:#0e355a;stroke:#0e355a;stroke-miterlimit:10;" d="M21.8,18.5H4.3V4h20.9v11.1C25.2,17,23.7,18.5,21.8,18.5z"/>
<path style="fill:none;stroke:#0e355a;stroke-miterlimit:10;" d="M28.5,4.5v13.3c0,2.3-1.8,4.2-4.1,4.2H3.3"/>
<circle style="fill:#0e355a;" cx="32.5" cy="10.5" r="3"/>
<circle style="fill:#0e355a;" cx="32.5" cy="22.5" r="1.4"/>
<g>
	<circle style="fill:#ffffff;" cx="23.8" cy="14.8" r="0.8"/>
</g>
<g>
	<circle style="fill:#ffffff;" cx="23.8" cy="12.5" r="0.8"/>
</g>
<g>
	<circle style="fill:#ffffff;" cx="23.8" cy="10.2" r="0.8"/>
</g>
<g>
	<circle style="fill:#ffffff;" cx="23.8" cy="8" r="0.8"/>
</g>
<g>
	<circle style="fill:#ffffff;" cx="23.8" cy="5.8" r="0.8"/>
</g>
</svg>
